<svg width="31" height="30" viewBox="0 0 31 30" fill="none" xmlns="http://www.w3.org/2000/svg">
<g clip-path="url(#clip0_1_5808)">
<path d="M30.5 15C30.5 22.4871 25.0145 28.6928 17.8438 29.8178V19.3359H21.3389L22.0039 15H17.8438V12.1863C17.8438 10.9998 18.425 9.84375 20.2883 9.84375H22.1797V6.15234C22.1797 6.15234 20.4629 5.85938 18.8217 5.85938C15.3957 5.85938 13.1562 7.93594 13.1562 11.6953V15H9.34766V19.3359H13.1562V29.8178C5.98555 28.6928 0.5 22.4871 0.5 15C0.5 6.71602 7.21602 0 15.5 0C23.784 0 30.5 6.71602 30.5 15Z" fill="#1877F2"/>
<path d="M21.3389 19.3359L22.0039 15H17.8438V12.1863C17.8438 11 18.4249 9.84375 20.2882 9.84375H22.1797V6.15234C22.1797 6.15234 20.4631 5.85938 18.822 5.85938C15.3956 5.85938 13.1562 7.93594 13.1562 11.6953V15H9.34766V19.3359H13.1562V29.8177C13.92 29.9375 14.7027 30 15.5 30C16.2973 30 17.08 29.9375 17.8438 29.8177V19.3359H21.3389Z" fill="white"/>
</g>
<defs>
<clipPath id="clip0_1_5808">
<rect width="30" height="30" fill="white" transform="translate(0.5)"/>
</clipPath>
</defs>
</svg>
