<svg width="31" height="30" viewBox="0 0 31 30" fill="none" xmlns="http://www.w3.org/2000/svg">
<g clip-path="url(#clip0_1_5812)">
<path fill-rule="evenodd" clip-rule="evenodd" d="M15.5 0C23.7843 0 30.5 6.71572 30.5 15C30.5 23.2843 23.7843 30 15.5 30C7.21572 30 0.5 23.2843 0.5 15C0.5 6.71572 7.21572 0 15.5 0ZM24.3066 21.9396C24.521 21.7242 24.6413 21.4326 24.6413 21.1287C24.6413 20.8248 24.521 20.5333 24.3066 20.3179L21.3704 17.3823C21.1549 17.1679 20.8633 17.0475 20.5592 17.0475C20.2552 17.0475 19.9635 17.1679 19.748 17.3823L18.9501 18.1805C18.6852 18.4477 18.341 18.6222 17.9689 18.6779C17.5968 18.7336 17.2166 18.6677 16.885 18.4898C14.8086 17.3901 13.1104 15.6921 12.0104 13.6158C11.8325 13.2842 11.7665 12.9039 11.8221 12.5317C11.8777 12.1595 12.0521 11.8152 12.3192 11.55L13.1186 10.752C13.3329 10.5364 13.4532 10.2448 13.4532 9.94087C13.4532 9.63691 13.3329 9.34531 13.1186 9.12979L10.1824 6.19453C9.96686 5.98007 9.67517 5.85967 9.37112 5.85967C9.06707 5.85967 8.77539 5.98007 8.55986 6.19453C8.43852 6.31553 8.285 6.46172 8.12082 6.61641C7.71025 7.00447 7.19803 7.48746 6.99096 7.79109C5.90035 9.38713 6.42336 11.5224 7.05166 13.0328C7.88164 15.0237 9.41129 17.193 11.3604 19.1408C13.3078 21.0883 15.4764 22.6181 17.4683 23.4481C18.9784 24.0773 21.1129 24.599 22.7088 23.5086C23.0123 23.3014 23.496 22.7904 23.8833 22.3793C24.0386 22.2154 24.1849 22.0605 24.3066 21.9396Z" fill="#4DA819"/>
</g>
<defs>
<clipPath id="clip0_1_5812">
<rect width="30" height="30" fill="white" transform="translate(0.5)"/>
</clipPath>
</defs>
</svg>
